<?xml version="1.0" encoding="UTF-8" standalone="no"?>
<svg
   class="card"
   face="TS"
   height="94mm"
   preserveAspectRatio="none"
   viewBox="-132 -180 264 360"
   width="69mm"
   version="1.1"
   id="svg42"
   sodipodi:docname="10S.svg"
   inkscape:version="1.1.1 (3bf5ae0d25, 2021-09-20, custom)"
   xmlns:inkscape="http://www.inkscape.org/namespaces/inkscape"
   xmlns:sodipodi="http://sodipodi.sourceforge.net/DTD/sodipodi-0.dtd"
   xmlns:xlink="http://www.w3.org/1999/xlink"
   xmlns="http://www.w3.org/2000/svg"
   xmlns:svg="http://www.w3.org/2000/svg">
  <defs
     id="defs46" />
  <sodipodi:namedview
     id="namedview44"
     pagecolor="#ffffff"
     bordercolor="#666666"
     borderopacity="1.0"
     inkscape:pageshadow="2"
     inkscape:pageopacity="0.0"
     inkscape:pagecheckerboard="0"
     inkscape:document-units="mm"
     showgrid="false"
     inkscape:zoom="0.80418869"
     inkscape:cx="81.448547"
     inkscape:cy="177.19722"
     inkscape:window-width="952"
     inkscape:window-height="520"
     inkscape:window-x="962"
     inkscape:window-y="530"
     inkscape:window-maximized="1"
     inkscape:current-layer="svg42" />
  <symbol
     id="SST"
     viewBox="-600 -600 1200 1200"
     preserveAspectRatio="xMinYMid">
    <path
       d="M0 -500C100 -250 355 -100 355 185A150 150 0 0 1 55 185A10 10 0 0 0 35 185C35 385 85 400 130 500L-130 500C-85 400 -35 385 -35 185A10 10 0 0 0 -55 185A150 150 0 0 1 -355 185C-355 -100 -100 -250 0 -500Z"
       fill="black"
       id="path2" />
  </symbol>
  <symbol
     id="VST"
     viewBox="-500 -500 1000 1000"
     preserveAspectRatio="xMinYMid">
    <path
       d="M-260 430L-260 -430M-50 0L-50 -310A150 150 0 0 1 250 -310L250 310A150 150 0 0 1 -50 310Z"
       stroke="black"
       stroke-width="80"
       stroke-linecap="square"
       stroke-miterlimit="1.5"
       fill="none"
       id="path5" />
  </symbol>
  <rect
     width="239"
     height="335"
     x="-119.5"
     y="-167.5"
     rx="12"
     ry="12"
     fill="white"
     stroke="black"
     id="rect10" />
  <use
     xlink:href="#VST"
     height="32"
     x="-112.4"
     y="-154"
     id="use12" />
  <use
     xlink:href="#SST"
     height="26.769"
     x="-109.784"
     y="-117"
     id="use14" />
  <use
     xlink:href="#SST"
     height="65"
     x="-85.084"
     y="-133.084"
     id="use16" />
  <use
     xlink:href="#SST"
     height="65"
     x="20.084"
     y="-133.084"
     id="use18" />
  <use
     xlink:href="#SST"
     height="65"
     x="-85.084"
     y="-66.028"
     id="use20" />
  <use
     xlink:href="#SST"
     height="65"
     x="20.084"
     y="-66.028"
     id="use22" />
  <use
     xlink:href="#SST"
     height="65"
     x="-32.5"
     y="-99.556"
     id="use24" />
  <g
     transform="rotate(180)"
     id="g40">
    <use
       xlink:href="#VST"
       height="32"
       x="-112.4"
       y="-154"
       id="use26" />
    <use
       xlink:href="#SST"
       height="26.769"
       x="-109.784"
       y="-117"
       id="use28" />
    <use
       xlink:href="#SST"
       height="65"
       x="-85.084"
       y="-133.084"
       id="use30" />
    <use
       xlink:href="#SST"
       height="65"
       x="20.084"
       y="-133.084"
       id="use32" />
    <use
       xlink:href="#SST"
       height="65"
       x="-85.084"
       y="-66.028"
       id="use34" />
    <use
       xlink:href="#SST"
       height="65"
       x="20.084"
       y="-66.028"
       id="use36" />
    <use
       xlink:href="#SST"
       height="65"
       x="-32.5"
       y="-99.556"
       id="use38" />
  </g>
</svg>
