<?xml version="1.0" encoding="UTF-8" standalone="no"?>
<svg
   class="card"
   face="AC"
   height="94mm"
   preserveAspectRatio="none"
   viewBox="-132 -180 264 360"
   width="69mm"
   version="1.1"
   id="svg24"
   sodipodi:docname="AC.svg"
   inkscape:version="1.1.1 (3bf5ae0d25, 2021-09-20, custom)"
   xmlns:inkscape="http://www.inkscape.org/namespaces/inkscape"
   xmlns:sodipodi="http://sodipodi.sourceforge.net/DTD/sodipodi-0.dtd"
   xmlns:xlink="http://www.w3.org/1999/xlink"
   xmlns="http://www.w3.org/2000/svg"
   xmlns:svg="http://www.w3.org/2000/svg">
  <defs
     id="defs28" />
  <sodipodi:namedview
     id="namedview26"
     pagecolor="#ffffff"
     bordercolor="#666666"
     borderopacity="1.0"
     inkscape:pageshadow="2"
     inkscape:pageopacity="0.0"
     inkscape:pagecheckerboard="0"
     inkscape:document-units="mm"
     showgrid="false"
     inkscape:zoom="0.39542184"
     inkscape:cx="-264.27473"
     inkscape:cy="281.97735"
     inkscape:window-width="952"
     inkscape:window-height="520"
     inkscape:window-x="962"
     inkscape:window-y="530"
     inkscape:window-maximized="1"
     inkscape:current-layer="svg24" />
  <symbol
     id="VCA"
     viewBox="-500 -500 1000 1000"
     preserveAspectRatio="xMinYMid">
    <path
       d="M-270 460L-110 460M-200 450L0 -460L200 450M110 460L270 460M-120 130L120 130"
       stroke="black"
       stroke-width="80"
       stroke-linecap="square"
       stroke-miterlimit="1.5"
       fill="none"
       id="path2" />
  </symbol>
  <symbol
     id="SCA"
     viewBox="-600 -600 1200 1200"
     preserveAspectRatio="xMinYMid">
    <path
       d="M30 150C35 385 85 400 130 500L-130 500C-85 400 -35 385 -30 150A10 10 0 0 0 -50 150A210 210 0 1 1 -124 -51A10 10 0 0 0 -110 -65A230 230 0 1 1 110 -65A10 10 0 0 0 124 -51A210 210 0 1 1 50 150A10 10 0 0 0 30 150Z"
       fill="black"
       id="path5" />
  </symbol>
  <rect
     width="239"
     height="335"
     x="-119.5"
     y="-167.5"
     rx="12"
     ry="12"
     fill="white"
     stroke="black"
     id="rect10" />
  <use
     xlink:href="#SCA"
     height="65"
     x="-32.5"
     y="-32.5"
     id="use12" />
  <use
     xlink:href="#VCA"
     height="32"
     x="-112.4"
     y="-154"
     id="use14" />
  <use
     xlink:href="#SCA"
     height="26.769"
     x="-109.784"
     y="-117"
     id="use16" />
  <g
     transform="rotate(180)"
     id="g22">
    <use
       xlink:href="#VCA"
       height="32"
       x="-112.4"
       y="-154"
       id="use18" />
    <use
       xlink:href="#SCA"
       height="26.769"
       x="-109.784"
       y="-117"
       id="use20" />
  </g>
</svg>
